<svg width="441" height="64" viewBox="0 0 441 64" fill="none" xmlns="http://www.w3.org/2000/svg">
<path d="M119.918 33.424C119.918 28.5173 121.475 24.4 124.59 21.072C127.705 17.7013 131.673 16.016 136.494 16.016C141.059 16.016 144.686 17.3173 147.374 19.92C150.105 22.48 151.726 25.4453 152.238 28.816H144.43C143.961 26.9813 143.001 25.5093 141.55 24.4C140.142 23.2907 138.435 22.736 136.43 22.736C133.742 22.736 131.587 23.7387 129.966 25.744C128.345 27.7067 127.534 30.2667 127.534 33.424C127.534 36.5813 128.345 39.1413 129.966 41.104C131.587 43.0667 133.742 44.048 136.43 44.048C138.435 44.048 140.142 43.4933 141.55 42.384C143.001 41.2747 143.961 39.8027 144.43 37.968H152.238C151.726 41.3387 150.105 44.3253 147.374 46.928C144.686 49.488 141.059 50.768 136.494 50.768C131.673 50.768 127.705 49.104 124.59 45.776C121.475 42.4053 119.918 38.288 119.918 33.424Z" fill="black"/>
<path d="M171.784 50.768C166.664 50.768 162.504 49.0827 159.304 45.712C156.147 42.3413 154.568 38.2453 154.568 33.424C154.568 28.6027 156.147 24.5067 159.304 21.136C162.504 17.7227 166.664 16.016 171.784 16.016C176.947 16.016 181.107 17.7227 184.264 21.136C187.464 24.5067 189.064 28.6027 189.064 33.424C189.064 38.2453 187.464 42.3413 184.264 45.712C181.107 49.0827 176.947 50.768 171.784 50.768ZM162.184 33.424C162.184 36.5813 163.08 39.1413 164.872 41.104C166.707 43.0667 169.011 44.048 171.784 44.048C174.6 44.048 176.904 43.0667 178.696 41.104C180.531 39.1413 181.448 36.5813 181.448 33.424C181.448 30.224 180.531 27.6427 178.696 25.68C176.904 23.7173 174.6 22.736 171.784 22.736C169.011 22.736 166.707 23.7173 164.872 25.68C163.08 27.6427 162.184 30.224 162.184 33.424Z" fill="black"/>
<path d="M223.447 30.928V50H215.831V30.096C215.831 25.0613 213.74 22.544 209.559 22.544C207.298 22.544 205.484 23.2693 204.119 24.72C202.796 26.1707 202.135 28.1547 202.135 30.672V50H194.519V16.784H201.559V21.2C202.37 19.7067 203.607 18.4693 205.271 17.488C206.935 16.5067 209.004 16.016 211.479 16.016C216.087 16.016 219.415 17.7653 221.463 21.264C224.279 17.7653 228.034 16.016 232.727 16.016C236.61 16.016 239.596 17.232 241.687 19.664C243.778 22.0533 244.823 25.2107 244.823 29.136V50H237.207V30.096C237.207 25.0613 235.116 22.544 230.935 22.544C228.631 22.544 226.796 23.2907 225.431 24.784C224.108 26.2347 223.447 28.2827 223.447 30.928Z" fill="black"/>
<path d="M259.722 45.648V63.312H252.106V16.784H259.146V21.52C261.493 17.8507 265.226 16.016 270.346 16.016C275.125 16.016 278.88 17.68 281.61 21.008C284.384 24.336 285.77 28.4747 285.77 33.424C285.77 38.3733 284.384 42.512 281.61 45.84C278.88 49.1253 275.125 50.768 270.346 50.768C265.482 50.768 261.941 49.0613 259.722 45.648ZM259.466 33.424C259.466 36.496 260.298 39.0347 261.962 41.04C263.669 43.0453 265.952 44.048 268.81 44.048C271.626 44.048 273.888 43.0453 275.594 41.04C277.301 38.992 278.154 36.4533 278.154 33.424C278.154 30.3093 277.301 27.728 275.594 25.68C273.888 23.632 271.626 22.608 268.81 22.608C265.952 22.608 263.669 23.632 261.962 25.68C260.298 27.6853 259.466 30.2667 259.466 33.424Z" fill="black"/>
<path d="M306.234 50.768C301.114 50.768 296.954 49.0827 293.754 45.712C290.597 42.3413 289.018 38.2453 289.018 33.424C289.018 28.6027 290.597 24.5067 293.754 21.136C296.954 17.7227 301.114 16.016 306.234 16.016C311.397 16.016 315.557 17.7227 318.714 21.136C321.914 24.5067 323.514 28.6027 323.514 33.424C323.514 38.2453 321.914 42.3413 318.714 45.712C315.557 49.0827 311.397 50.768 306.234 50.768ZM296.634 33.424C296.634 36.5813 297.53 39.1413 299.322 41.104C301.157 43.0667 303.461 44.048 306.234 44.048C309.05 44.048 311.354 43.0667 313.146 41.104C314.981 39.1413 315.898 36.5813 315.898 33.424C315.898 30.224 314.981 27.6427 313.146 25.68C311.354 23.7173 309.05 22.736 306.234 22.736C303.461 22.736 301.157 23.7173 299.322 25.68C297.53 27.6427 296.634 30.224 296.634 33.424Z" fill="black"/>
<path d="M350.409 35.92V16.784H358.025V50H350.985V45.712C350.217 47.1627 348.958 48.3787 347.209 49.36C345.502 50.2987 343.39 50.768 340.873 50.768C336.948 50.768 333.918 49.5947 331.785 47.248C329.694 44.8587 328.649 41.68 328.649 37.712V16.784H336.265V36.688C336.265 41.7227 338.42 44.24 342.729 44.24C345.118 44.24 346.996 43.536 348.361 42.128C349.726 40.6773 350.409 38.608 350.409 35.92Z" fill="black"/>
<path d="M372.659 16.784V21.2C373.427 19.7493 374.686 18.5333 376.435 17.552C378.227 16.528 380.382 16.016 382.899 16.016C386.824 16.016 389.854 17.2107 391.987 19.6C394.163 21.9893 395.251 25.168 395.251 29.136V50H387.635V30.096C387.635 27.7493 387.08 25.9147 385.971 24.592C384.904 23.2267 383.262 22.544 381.043 22.544C378.611 22.544 376.691 23.2693 375.283 24.72C373.918 26.1707 373.235 28.176 373.235 30.736V50H365.619V16.784H372.659Z" fill="black"/>
<path d="M426.389 21.136V2H434.005V50H426.965V45.264C424.704 48.9333 420.971 50.768 415.765 50.768C411.029 50.768 407.275 49.1253 404.501 45.84C401.771 42.512 400.405 38.3733 400.405 33.424C400.405 28.4747 401.771 24.336 404.501 21.008C407.275 17.68 411.029 16.016 415.765 16.016C420.587 16.016 424.128 17.7227 426.389 21.136ZM426.709 33.424C426.709 30.3093 425.856 27.7493 424.149 25.744C422.485 23.7387 420.224 22.736 417.365 22.736C414.549 22.736 412.288 23.7387 410.581 25.744C408.875 27.7493 408.021 30.3093 408.021 33.424C408.021 36.4533 408.875 38.992 410.581 41.04C412.288 43.0453 414.549 44.048 417.365 44.048C420.224 44.048 422.485 43.0453 424.149 41.04C425.856 39.0347 426.709 36.496 426.709 33.424Z" fill="black"/>
<path fill-rule="evenodd" clip-rule="evenodd" d="M30.6861 0C13.8983 0 0.289062 13.6092 0.289062 30.397C0.289062 47.1848 13.8983 60.7941 30.6861 60.7941V0ZM69.3753 0C52.5875 0 38.9783 13.6092 38.9783 30.397C38.9783 47.1848 52.5875 60.7941 69.3753 60.7941C86.1631 60.7941 99.7723 47.1848 99.7723 30.397C99.7723 13.6092 86.1631 0 69.3753 0Z" fill="#0DBD8B"/>
<path fill-rule="evenodd" clip-rule="evenodd" d="M30.6861 0C13.8983 0 0.289062 13.6092 0.289062 30.397C0.289062 47.1848 13.8983 60.7941 30.6861 60.7941V0ZM69.3753 0C52.5875 0 38.9783 13.6092 38.9783 30.397C38.9783 47.1848 52.5875 60.7941 69.3753 60.7941C86.1631 60.7941 99.7723 47.1848 99.7723 30.397C99.7723 13.6092 86.1631 0 69.3753 0Z" fill="url(#paint0_linear_118_9128)"/>
<defs>
<linearGradient id="paint0_linear_118_9128" x1="141" y1="76.5" x2="60.4001" y2="-41.3195" gradientUnits="userSpaceOnUse">
<stop stop-color="#062993"/>
<stop offset="0.040404" stop-color="#02389D"/>
<stop offset="0.0808081" stop-color="#0045A6"/>
<stop offset="0.121212" stop-color="#0051AD"/>
<stop offset="0.161616" stop-color="#005DB4"/>
<stop offset="0.20202" stop-color="#0069BA"/>
<stop offset="0.242424" stop-color="#0075BB"/>
<stop offset="0.282828" stop-color="#0081BB"/>
<stop offset="0.323232" stop-color="#008CB9"/>
<stop offset="0.363636" stop-color="#0098B7"/>
<stop offset="0.40404" stop-color="#00A3B3"/>
<stop offset="0.444444" stop-color="#00AEAD"/>
<stop offset="0.484848" stop-color="#00B8A4"/>
<stop offset="0.525253" stop-color="#00C2A0"/>
<stop offset="0.565657" stop-color="#00CC99"/>
<stop offset="0.606061" stop-color="#3AD396"/>
<stop offset="0.646465" stop-color="#5DD898"/>
<stop offset="0.686869" stop-color="#79DD99"/>
<stop offset="0.727273" stop-color="#92E29B"/>
<stop offset="0.767677" stop-color="#A8E69F"/>
<stop offset="0.808081" stop-color="#BBEAA5"/>
<stop offset="0.848485" stop-color="#CDEEAE"/>
<stop offset="0.888889" stop-color="#DCF2B9"/>
<stop offset="0.929293" stop-color="#EAF6C7"/>
<stop offset="0.969697" stop-color="#F5FBD5"/>
</linearGradient>
</defs>
</svg>
